<svg viewBox="0 0 240 240" xmlns="http://www.w3.org/2000/svg">
  <defs>
    <pattern id="oDots" x="0" y="0" width="7" height="7" patternUnits="userSpaceOnUse">
      <rect width="7" height="7" fill="#FF6B2C"/>
      <circle cx="3.5" cy="3.5" r="1.3" fill="#1A1714" opacity="0.22"/>
    </pattern>
  </defs>
  <rect width="240" height="240" fill="#FFF4D6" rx="16"/>
  <g stroke="#1A1714" stroke-width="3.5" stroke-linecap="round" fill="none">
    <line x1="14" y1="168" x2="42" y2="154"/>
    <line x1="32" y1="190" x2="58" y2="176"/>
  </g>
  <g transform="rotate(-18 120 95)">
    <path d="M 60 78 L 16 56 L 50 95 L 16 130 L 60 110 Z"
          fill="url(#oDots)" stroke="#1A1714" stroke-width="3.5" stroke-linejoin="round"/>
    <path d="M 115 65 L 138 38 L 155 63 Z"
          fill="#2540D9" stroke="#1A1714" stroke-width="3" stroke-linejoin="round"/>
    <path d="M 218 80 Q 232 70 220 58 Q 195 45 155 52 Q 105 60 75 78
             Q 58 88 55 100 Q 58 112 75 122 Q 110 132 155 128
             Q 195 124 218 112 Q 230 100 218 80 Z"
          fill="url(#oDots)" stroke="#1A1714" stroke-width="3.5" stroke-linejoin="round"/>
    <path d="M 148 108 L 162 128 L 172 108 Z"
          fill="#2540D9" stroke="#1A1714" stroke-width="2.5" stroke-linejoin="round"/>
    <circle cx="195" cy="82" r="11" fill="#1A1714"/>
    <path d="M 192 76 L 193.5 80 L 197 81 L 193.5 82 L 192 86 L 190.5 82 L 187 81 L 190.5 80 Z" fill="#FFF4D6"/>
    <path d="M 205 97 Q 213 102 220 97" fill="none" stroke="#1A1714" stroke-width="2.8" stroke-linecap="round"/>
    <circle cx="180" cy="105" r="5" fill="#FFC93C" opacity="0.7"/>
    <g transform="translate(235 70)">
      <path d="M 0 -10 L 2.5 -2.5 L 10 0 L 2.5 2.5 L 0 10 L -2.5 2.5 L -10 0 L -2.5 -2.5 Z"
            fill="#FFC93C" stroke="#1A1714" stroke-width="2"/>
    </g>
  </g>
  <text x="120" y="233" font-family="monospace" font-size="12" fill="#1A1714" text-anchor="middle" opacity="0.45">① 斜游</text>
</svg>
